<?xml version="1.0" standalone="no"?>
<!DOCTYPE svg PUBLIC "-//W3C//DTD SVG 20010904//EN"
 "http://www.w3.org/TR/2001/REC-SVG-20010904/DTD/svg10.dtd">
<svg version="1.0" xmlns="http://www.w3.org/2000/svg"
 width="150.000000pt" height="150.000000pt" viewBox="0 0 150.000000 150.000000"
 preserveAspectRatio="xMidYMid meet">
<metadata>
Created by potrace 1.14, written by Peter Selinger 2001-2017
</metadata>
<g transform="translate(0.000000,150.000000) scale(0.100000,-0.100000)"
fill="#000000" stroke="none">
<path d="M0 750 l0 -750 750 0 750 0 0 750 0 750 -750 0 -750 0 0 -750z m964
491 c133 -65 216 -187 224 -332 6 -102 -17 -189 -67 -262 l-38 -53 32 -113
c30 -104 31 -114 16 -132 -13 -16 -266 -95 -423 -133 -37 -9 -62 17 -79 83
l-13 51 -87 0 c-72 0 -91 3 -112 20 -24 19 -26 27 -29 113 l-3 92 -38 18 c-21
10 -40 24 -43 31 -3 8 13 56 35 108 28 66 43 120 50 179 19 150 104 273 226
329 77 36 92 39 195 37 75 -2 94 -6 154 -36z"/>
<path d="M757 1104 c-4 -4 -7 -16 -7 -26 0 -28 -44 -45 -75 -28 -22 12 -27 11
-45 -5 -22 -20 -26 -45 -10 -61 17 -17 -5 -62 -32 -66 -18 -2 -24 -10 -26 -39
-3 -32 0 -37 23 -43 32 -8 45 -41 31 -79 -10 -25 -8 -31 13 -48 22 -18 26 -18
48 -4 22 15 26 15 49 0 13 -8 24 -22 24 -30 0 -8 9 -19 20 -25 26 -14 56 2 64
34 7 30 41 39 71 20 20 -13 25 -13 46 5 22 18 23 22 12 51 -15 40 -3 67 32 76
20 5 25 12 25 39 0 27 -5 35 -29 43 -32 11 -50 47 -32 65 17 17 13 42 -9 62
-18 16 -23 17 -45 5 -32 -17 -72 -1 -77 32 -2 17 -10 24 -33 26 -17 2 -34 0
-38 -4z m66 -156 c76 -40 54 -148 -30 -148 -63 0 -107 76 -70 122 28 35 65 45
100 26z"/>
</g>
</svg>
